<?xml version="1.0" encoding="UTF-8"?>
<!-- Created with Inkscape (http://www.inkscape.org/) -->
<svg width="85mm" height="27mm" version="1.1" viewBox="0 0 85 27" xmlns="http://www.w3.org/2000/svg">
 <defs>
  <clipPath id="a">
   <path d="M 0,119.055 H 595.28 V 0 H 0 Z"/>
  </clipPath>
 </defs>
 <g transform="matrix(.35278 0 0 -.35278 -17.945 34.5)">
  <g clip-path="url(#a)">
   <g transform="translate(124.72 59.528)">
    <path d="m0 0c0-19.569-15.864-35.433-35.433-35.433s-35.433 15.864-35.433 35.433 15.864 35.433 35.433 35.433 35.433-15.864 35.433-35.433" fill="#f34c20"/>
   </g>
   <g transform="translate(93.599 56.503)">
    <path d="m0 0c7.083 3.533 10.623 7.985 10.623 13.363 0 7.951-4.552 11.934-13.643 11.934h-19.706l6.714-7.261h12.457c3.698 0 5.548-1.642 5.548-4.923 0-4.774-3.949-7.838-11.838-9.186v-3.772l13.552-19.402h10.404z" fill="#fff"/>
   </g>
   <g transform="translate(191.84 62.317)">
    <path d="m0 0h-4.803c-1.898 0.267-2.854 1.369-2.86 3.315v1.338c7e-3 2.254 1.283 3.383 3.831 3.383h10.795v5.013h-11.162c-6.162 0-9.295-2.65-9.413-7.937l6e-3 -2.428c0.183-5.172 3.312-7.767 9.407-7.767h4.802c1.898-0.266 2.855-1.369 2.861-3.313v-1.338c-7e-3 -2.254-1.283-3.383-3.831-3.383h-11.99v-5.014h12.357c6.163 0 9.295 2.65 9.413 7.936l-7e-3 2.43c-0.181 5.171-3.311 7.765-9.406 7.765" fill="#f34c20"/>
   </g>
   <g transform="translate(150.24 44.332)">
    <path d="m0 0h23.412v5.015h-17.633v8.124h13.39v5.015h-13.39v8.009h17.633v5.016l-23.412 1e-3z" fill="#f34c20"/>
   </g>
   <g transform="translate(288.82 59.338)">
    <path d="m0 0h-1e-3c0.092 10.37-4.974 15.605-15.2 15.704-0.588 6e-3 -10.855 0.106-10.855 0.106l-0.3-31.074s10.253-0.101 10.854-0.106c10.227-0.099 15.393 5.018 15.501 15.346h1e-3c0 3e-3 -1e-3 8e-3 -1e-3 0.012 0 5e-3 1e-3 9e-3 1e-3 0.012m-15.454-10.46c-0.6 5e-3 -4.316 0.037-5.1 0.044l0.205 21.245c0.739-7e-3 4.5-0.048 5.099-0.053 6.25-0.061 9.341-3.724 9.277-10.731-0.071-6.978-3.232-10.566-9.481-10.505" fill="#f34c20"/>
   </g>
   <g transform="translate(247.87 75.148)">
    <path d="m0 0h-5.029l-10.568-31.181h6.032l2.484 8.098h9.212l2.484-8.098h6.031l-10.567 31.181zm-2.476-8.069 3.07-10.007h-6.139z" fill="#f34c20"/>
   </g>
   <g transform="translate(227.34 67.764)">
    <path d="m0 0 2.687 2.729s-2.316 2.565-5.824 3.965c-3.316 1.323-18.689 3.817-18.689-14.635v-0.528c0-18.452 15.373-15.958 18.689-14.635 3.508 1.399 5.824 3.963 5.824 3.963l-2.687 2.731c-3.494-2.532-15.829-6.238-15.829 7.941h1e-3v0.528h-1e-3c0 14.179 12.335 10.473 15.829 7.941" fill="#f34c20"/>
   </g>
  </g>
 </g>
</svg>
