<?xml version="1.0" encoding="UTF-8" standalone="no"?>
<!-- Created with Inkscape (http://www.inkscape.org/) -->

<svg
   version="1.1"
   id="svg536"
   xml:space="preserve"
   width="793.70667"
   height="158.74001"
   viewBox="0 0 793.70667 158.74001"
   sodipodi:docname="Roosh.svg"
   inkscape:version="1.1 (c68e22c387, 2021-05-23)"
   inkscape:export-filename="C:\Users\heubuchm\Nextcloud\CorporateDesign\Roosh.png"
   inkscape:export-xdpi="96"
   inkscape:export-ydpi="96"
   xmlns:inkscape="http://www.inkscape.org/namespaces/inkscape"
   xmlns:sodipodi="http://sodipodi.sourceforge.net/DTD/sodipodi-0.dtd"
   xmlns="http://www.w3.org/2000/svg"
   xmlns:svg="http://www.w3.org/2000/svg"><defs
     id="defs540"><clipPath
       clipPathUnits="userSpaceOnUse"
       id="clipPath550"><path
         d="M 0,119.055 H 595.28 V 0 H 0 Z"
         id="path548" /></clipPath><clipPath
       clipPathUnits="userSpaceOnUse"
       id="clipPath586"><path
         d="M 0,119.055 H 595.28 V 0 H 0 Z"
         id="path584" /></clipPath><clipPath
       clipPathUnits="userSpaceOnUse"
       id="clipPath594"><path
         d="M 0,72.3354 H 25.7918 V 41.1543 H 0 Z"
         id="path592" /></clipPath><clipPath
       clipPathUnits="userSpaceOnUse"
       id="clipPath610"><path
         d="m 124.723,72.3354 h 25.792 V 41.1543 h -25.792 z"
         id="path608" /></clipPath><clipPath
       clipPathUnits="userSpaceOnUse"
       id="clipPath626"><path
         d="m 150.236,119.055 h 25.792 V 87.874 h -25.792 z"
         id="path624" /></clipPath><clipPath
       clipPathUnits="userSpaceOnUse"
       id="clipPath642"><path
         d="m 150.236,31.1131 h 25.792 V -0.0680389 h -25.792 z"
         id="path640" /></clipPath><clipPath
       clipPathUnits="userSpaceOnUse"
       id="clipPath658"><path
         d="m 179.332,56.6928 h 51.572 V -5.66937 h -51.572 z"
         id="path656" /></clipPath></defs><sodipodi:namedview
     id="namedview538"
     pagecolor="#ffffff"
     bordercolor="#666666"
     borderopacity="1.0"
     inkscape:pageshadow="2"
     inkscape:pageopacity="0.0"
     inkscape:pagecheckerboard="0"
     showgrid="false"
     inkscape:zoom="1.5219729"
     inkscape:cx="258.87452"
     inkscape:cy="79.173554"
     inkscape:window-width="1920"
     inkscape:window-height="1017"
     inkscape:window-x="3832"
     inkscape:window-y="-8"
     inkscape:window-maximized="1"
     inkscape:current-layer="g542" /><g
     id="g542"
     inkscape:groupmode="layer"
     inkscape:label="Logo_ESCAD_oTag_E_rgb"
     transform="matrix(1.3333333,0,0,-1.3333333,0,158.74)"><g
       id="g861"><g
         id="g552"
         transform="translate(124.7246,59.5275)"><path
           d="m 0,0 c 0,-19.569 -15.864,-35.433 -35.433,-35.433 -19.569,0 -35.433,15.864 -35.433,35.433 0,19.569 15.864,35.433 35.433,35.433 C -15.864,35.433 0,19.569 0,0"
           style="fill:#f34c20;fill-opacity:1;fill-rule:nonzero;stroke:none"
           id="path554" /></g><g
         id="g556"
         transform="translate(93.5991,56.5031)"><path
           d="m 0,0 c 7.083,3.533 10.623,7.985 10.623,13.363 0,7.951 -4.552,11.934 -13.643,11.934 h -19.706 l 6.714,-7.261 h 12.457 c 3.698,0 5.548,-1.642 5.548,-4.923 0,-4.774 -3.949,-7.838 -11.838,-9.186 V 0.155 L 3.707,-19.247 h 10.404 z"
           style="fill:#ffffff;fill-opacity:1;fill-rule:nonzero;stroke:none"
           id="path558" /></g></g></g></svg>
